{"asset":{"generator":"glTF-Transform v4.0.2","version":"2.0"},"accessors":[{"type":"SCALAR","componentType":5123,"count":13428,"bufferView":0,"byteOffset":0},{"type":"VEC3","componentType":5126,"count":4452,"max":[0.03114924393594265,0.0483773872256279,0.016375917941331863],"min":[-0.02659032866358757,-0.025614000856876373,-0.01674124039709568],"bufferView":1,"byteOffset":0},{"type":"VEC3","componentType":5126,"count":4452,"bufferView":1,"byteOffset":12},{"type":"VEC4","componentType":5126,"count":4452,"bufferView":1,"byteOffset":24},{"type":"VEC2","componentType":5126,"count":4452,"bufferView":1,"byteOffset":40}],"bufferViews":[{"buffer":0,"byteOffset":0,"byteLength":26856,"target":34963},{"buffer":0,"byteOffset":26856,"byteLength":213696,"byteStride":48,"target":34962}],"samplers":[{"magFilter":9729,"minFilter":9987,"wrapS":10497,"wrapT":10497}],"textures":[{"sampler":0,"extensions":{"KHR_texture_basisu":{"source":0}}},{"sampler":0,"extensions":{"KHR_texture_basisu":{"source":2}}},{"sampler":0,"extensions":{"KHR_texture_basisu":{"source":3}}},{"sampler":0,"extensions":{"KHR_texture_basisu":{"source":1}}}],"images":[{"name":"Material (Base Color)","mimeType":"image/ktx2","uri":"baseColor_1.ktx2"},{"name":"Material (Metallic Roughness)","mimeType":"image/ktx2","uri":"metallicRoughness_1.ktx2"},{"name":"Material (Normal)","mimeType":"image/ktx2","uri":"normal_1.ktx2"},{"name":"Material (Occlusion)","mimeType":"image/ktx2","uri":"occlusion_1.ktx2"}],"buffers":[{"uri":"muzenspeaker-opt.bin","byteLength":240552}],"materials":[{"name":"Material","doubleSided":true,"pbrMetallicRoughness":{"baseColorTexture":{"index":0},"metallicRoughnessTexture":{"index":3}},"normalTexture":{"index":1},"occlusionTexture":{"index":2,"texCoord":1,"extensions":{"KHR_texture_transform":{"texCoord":1}}}}],"meshes":[{"primitives":[{"attributes":{"POSITION":1,"NORMAL":2,"TANGENT":3,"TEXCOORD_0":4,"TEXCOORD_1":4},"mode":4,"material":0,"indices":0}]}],"nodes":[{"name":"muzen_radio","translation":[-0.0012366104638203979,0.02720542624592781,0],"mesh":0}],"scenes":[{"nodes":[0]}],"scene":0,"extensionsUsed":["KHR_texture_basisu","KHR_texture_transform"],"extensionsRequired":["KHR_texture_basisu"]}