{
  "asset": {
    "generator": "Khronos glTF Blender I/O v4.4.55",
    "version": "2.0"
  },
  "scene": 0,
  "scenes": [
    {
      "name": "Scene",
      "nodes": [0]
    }
  ],
  "nodes": [
    {
      "mesh": 0,
      "name": "muzen_radio",
      "translation": [-0.0012366104638203979, 0.02720542624592781, 0]
    }
  ],
  "materials": [
    {
      "doubleSided": true,
      "name": "Material",
      "normalTexture": {
        "index": 0
      },
      "occlusionTexture": {
        "index": 3,
        "texCoord": 1,
        "strength": 1.0
      },
      "pbrMetallicRoughness": {
        "baseColorTexture": {
          "index": 1
        },
        "metallicRoughnessTexture": {
          "index": 2
        }
      }
    }
  ],
  "meshes": [
    {
      "name": "Cube.018",
      "primitives": [
        {
          "attributes": {
            "POSITION": 0,
            "NORMAL": 1,
            "TEXCOORD_0": 2,
            "TEXCOORD_1": 3,
            "TANGENT": 4
          },
          "indices": 5,
          "material": 0
        }
      ]
    }
  ],
  "textures": [
    {
      "sampler": 0,
      "source": 0
    },
    {
      "sampler": 0,
      "source": 1
    },
    {
      "sampler": 0,
      "source": 2
    },
    {
      "sampler": 0,
      "source": 3
    }
  ],
  "images": [
    {
      "mimeType": "image/png",
      "name": "Material_Normal",
      "uri": "Material_Normal.png"
    },
    {
      "mimeType": "image/png",
      "name": "Material_BaseColor",
      "uri": "Material_BaseColor.png"
    },
    {
      "mimeType": "image/png",
      "name": "Material_Metallic-Material_Roughness",
      "uri": "Material_Metallic-Material_Roughness.png"
    },
    {
      "mimeType": "image/png",
      "name": "Material_AO",
      "uri": "muzen_ao.png"
    }
  ],
  "accessors": [
    {
      "bufferView": 0,
      "componentType": 5126,
      "count": 4452,
      "max": [0.03114924393594265, 0.0483773872256279, 0.016375917941331863],
      "min": [
        -0.02659032866358757, -0.025614000856876373, -0.01674124039709568
      ],
      "type": "VEC3"
    },
    {
      "bufferView": 1,
      "componentType": 5126,
      "count": 4452,
      "type": "VEC3"
    },
    {
      "bufferView": 2,
      "componentType": 5126,
      "count": 4452,
      "type": "VEC2"
    },
    {
      "bufferView": 3,
      "componentType": 5126,
      "count": 4452,
      "type": "VEC2"
    },
    {
      "bufferView": 4,
      "componentType": 5126,
      "count": 4452,
      "type": "VEC4"
    },
    {
      "bufferView": 5,
      "componentType": 5123,
      "count": 13428,
      "type": "SCALAR"
    }
  ],
  "bufferViews": [
    {
      "buffer": 0,
      "byteLength": 53424,
      "byteOffset": 0,
      "target": 34962
    },
    {
      "buffer": 0,
      "byteLength": 53424,
      "byteOffset": 53424,
      "target": 34962
    },
    {
      "buffer": 0,
      "byteLength": 35616,
      "byteOffset": 106848,
      "target": 34962
    },
    {
      "buffer": 0,
      "byteLength": 35616,
      "byteOffset": 142464,
      "target": 34962
    },
    {
      "buffer": 0,
      "byteLength": 71232,
      "byteOffset": 178080,
      "target": 34962
    },
    {
      "buffer": 0,
      "byteLength": 26856,
      "byteOffset": 249312,
      "target": 34963
    }
  ],
  "samplers": [
    {
      "magFilter": 9729,
      "minFilter": 9987
    }
  ],
  "buffers": [
    {
      "byteLength": 276168,
      "uri": "MuzenSpeaker.bin"
    }
  ]
}
